<mxfile host="app.diagrams.net" modified="2024-03-18T01:39:39.776Z" agent="Mozilla/5.0 (Windows NT 10.0; Win64; x64) AppleWebKit/537.36 (KHTML, like Gecko) Chrome/122.0.0.0 Safari/537.36 Edg/122.0.0.0" etag="BEK-BibPHL3Bo6RhrheO" version="24.0.7" type="github">
  <diagram name="PÃ¡gina-1" id="ghpV9EbfYmhoFtdUNU6d">
    <mxGraphModel dx="1747" dy="1124" grid="1" gridSize="10" guides="1" tooltips="1" connect="1" arrows="1" fold="1" page="1" pageScale="1" pageWidth="827" pageHeight="1169" math="0" shadow="0">
      <root>
        <mxCell id="0" />
        <mxCell id="1" parent="0" />
        <mxCell id="qDkiEyXSVq0rr-tsYiPm-1" value="" style="rounded=0;whiteSpace=wrap;html=1;fillColor=#f5f5f5;fontColor=#333333;strokeColor=#666666;" vertex="1" parent="1">
          <mxGeometry x="139" y="160" width="550" height="400" as="geometry" />
        </mxCell>
        <mxCell id="qDkiEyXSVq0rr-tsYiPm-2" value="" style="edgeStyle=orthogonalEdgeStyle;rounded=0;orthogonalLoop=1;jettySize=auto;html=1;" edge="1" parent="1" target="qDkiEyXSVq0rr-tsYiPm-7">
          <mxGeometry relative="1" as="geometry">
            <mxPoint x="285" y="260" as="sourcePoint" />
          </mxGeometry>
        </mxCell>
        <mxCell id="qDkiEyXSVq0rr-tsYiPm-4" value="" style="edgeStyle=orthogonalEdgeStyle;rounded=0;orthogonalLoop=1;jettySize=auto;html=1;" edge="1" parent="1" target="qDkiEyXSVq0rr-tsYiPm-18">
          <mxGeometry relative="1" as="geometry">
            <mxPoint x="522.5" y="260" as="sourcePoint" />
          </mxGeometry>
        </mxCell>
        <mxCell id="qDkiEyXSVq0rr-tsYiPm-38" style="edgeStyle=orthogonalEdgeStyle;rounded=0;orthogonalLoop=1;jettySize=auto;html=1;" edge="1" parent="1" source="qDkiEyXSVq0rr-tsYiPm-7" target="qDkiEyXSVq0rr-tsYiPm-12">
          <mxGeometry relative="1" as="geometry" />
        </mxCell>
        <mxCell id="qDkiEyXSVq0rr-tsYiPm-40" style="rounded=0;orthogonalLoop=1;jettySize=auto;html=1;" edge="1" parent="1" source="qDkiEyXSVq0rr-tsYiPm-7" target="qDkiEyXSVq0rr-tsYiPm-13">
          <mxGeometry relative="1" as="geometry" />
        </mxCell>
        <mxCell id="qDkiEyXSVq0rr-tsYiPm-7" value="" style="shape=cube;whiteSpace=wrap;html=1;boundedLbl=1;backgroundOutline=1;darkOpacity=0.05;darkOpacity2=0.1;fillColor=#e1d5e7;strokeColor=#9673a6;" vertex="1" parent="1">
          <mxGeometry x="240" y="330" width="90" height="50" as="geometry" />
        </mxCell>
        <mxCell id="qDkiEyXSVq0rr-tsYiPm-12" value="" style="fontColor=#0066CC;verticalAlign=top;verticalLabelPosition=bottom;labelPosition=center;align=center;html=1;outlineConnect=0;fillColor=#CCCCCC;strokeColor=#6881B3;gradientColor=none;gradientDirection=north;strokeWidth=2;shape=mxgraph.networks.monitor;" vertex="1" parent="1">
          <mxGeometry x="245" y="455" width="80" height="65" as="geometry" />
        </mxCell>
        <mxCell id="qDkiEyXSVq0rr-tsYiPm-13" value="" style="fontColor=#0066CC;verticalAlign=top;verticalLabelPosition=bottom;labelPosition=center;align=center;html=1;outlineConnect=0;fillColor=#CCCCCC;strokeColor=#6881B3;gradientColor=none;gradientDirection=north;strokeWidth=2;shape=mxgraph.networks.monitor;" vertex="1" parent="1">
          <mxGeometry x="482.5" y="455" width="80" height="65" as="geometry" />
        </mxCell>
        <mxCell id="qDkiEyXSVq0rr-tsYiPm-41" style="rounded=0;orthogonalLoop=1;jettySize=auto;html=1;exitX=0;exitY=0;exitDx=10;exitDy=40;exitPerimeter=0;" edge="1" parent="1" source="qDkiEyXSVq0rr-tsYiPm-18" target="qDkiEyXSVq0rr-tsYiPm-12">
          <mxGeometry relative="1" as="geometry" />
        </mxCell>
        <mxCell id="qDkiEyXSVq0rr-tsYiPm-18" value="" style="shape=cube;whiteSpace=wrap;html=1;boundedLbl=1;backgroundOutline=1;darkOpacity=0.05;darkOpacity2=0.1;fillColor=#e1d5e7;strokeColor=#9673a6;" vertex="1" parent="1">
          <mxGeometry x="477.5" y="330" width="90" height="50" as="geometry" />
        </mxCell>
        <mxCell id="qDkiEyXSVq0rr-tsYiPm-26" style="edgeStyle=orthogonalEdgeStyle;rounded=0;orthogonalLoop=1;jettySize=auto;html=1;entryX=0.025;entryY=0.496;entryDx=0;entryDy=0;entryPerimeter=0;" edge="1" parent="1" source="qDkiEyXSVq0rr-tsYiPm-7" target="qDkiEyXSVq0rr-tsYiPm-18">
          <mxGeometry relative="1" as="geometry" />
        </mxCell>
        <mxCell id="qDkiEyXSVq0rr-tsYiPm-27" style="edgeStyle=orthogonalEdgeStyle;rounded=0;orthogonalLoop=1;jettySize=auto;html=1;exitX=0;exitY=0;exitDx=0;exitDy=15;exitPerimeter=0;entryX=0.93;entryY=0.294;entryDx=0;entryDy=0;entryPerimeter=0;" edge="1" parent="1" source="qDkiEyXSVq0rr-tsYiPm-18" target="qDkiEyXSVq0rr-tsYiPm-7">
          <mxGeometry relative="1" as="geometry" />
        </mxCell>
        <mxCell id="qDkiEyXSVq0rr-tsYiPm-28" value="" style="html=1;rounded=0;exitX=0;exitY=0.25;exitDx=0;exitDy=0;entryX=1;entryY=0.25;entryDx=0;entryDy=0;endArrow=none;endFill=0;fillColor=#f8cecc;strokeColor=#b85450;" edge="1" parent="1">
          <mxGeometry width="100" relative="1" as="geometry">
            <mxPoint x="139" y="289.9999999999999" as="sourcePoint" />
            <mxPoint x="689.0000000000002" y="289.9999999999999" as="targetPoint" />
          </mxGeometry>
        </mxCell>
        <mxCell id="qDkiEyXSVq0rr-tsYiPm-29" value="" style="endArrow=none;html=1;rounded=0;exitX=0;exitY=0.5;exitDx=0;exitDy=0;entryX=1;entryY=0.5;entryDx=0;entryDy=0;fillColor=#f8cecc;strokeColor=#b85450;" edge="1" parent="1">
          <mxGeometry width="50" height="50" relative="1" as="geometry">
            <mxPoint x="138" y="420" as="sourcePoint" />
            <mxPoint x="688.0000000000002" y="420" as="targetPoint" />
          </mxGeometry>
        </mxCell>
        <mxCell id="qDkiEyXSVq0rr-tsYiPm-30" value="1 Tier&amp;nbsp;" style="text;html=1;align=center;verticalAlign=middle;whiteSpace=wrap;rounded=0;" vertex="1" parent="1">
          <mxGeometry x="610" y="340" width="60" height="30" as="geometry" />
        </mxCell>
        <mxCell id="qDkiEyXSVq0rr-tsYiPm-31" value="1 Tier&amp;nbsp;" style="text;html=1;align=center;verticalAlign=middle;whiteSpace=wrap;rounded=0;" vertex="1" parent="1">
          <mxGeometry x="610" y="480" width="60" height="30" as="geometry" />
        </mxCell>
        <mxCell id="qDkiEyXSVq0rr-tsYiPm-35" style="edgeStyle=orthogonalEdgeStyle;rounded=0;orthogonalLoop=1;jettySize=auto;html=1;" edge="1" parent="1" source="qDkiEyXSVq0rr-tsYiPm-32">
          <mxGeometry relative="1" as="geometry">
            <mxPoint x="330" y="235" as="targetPoint" />
          </mxGeometry>
        </mxCell>
        <mxCell id="qDkiEyXSVq0rr-tsYiPm-32" value="" style="shape=cube;whiteSpace=wrap;html=1;boundedLbl=1;backgroundOutline=1;darkOpacity=0.05;darkOpacity2=0.1;fillColor=#e1d5e7;strokeColor=#9673a6;" vertex="1" parent="1">
          <mxGeometry x="477.5" y="210" width="90" height="50" as="geometry" />
        </mxCell>
        <mxCell id="qDkiEyXSVq0rr-tsYiPm-34" style="edgeStyle=orthogonalEdgeStyle;rounded=0;orthogonalLoop=1;jettySize=auto;html=1;" edge="1" parent="1" source="qDkiEyXSVq0rr-tsYiPm-33" target="qDkiEyXSVq0rr-tsYiPm-32">
          <mxGeometry relative="1" as="geometry" />
        </mxCell>
        <mxCell id="qDkiEyXSVq0rr-tsYiPm-33" value="" style="shape=cube;whiteSpace=wrap;html=1;boundedLbl=1;backgroundOutline=1;darkOpacity=0.05;darkOpacity2=0.1;fillColor=#e1d5e7;strokeColor=#9673a6;" vertex="1" parent="1">
          <mxGeometry x="240" y="210" width="90" height="50" as="geometry" />
        </mxCell>
        <mxCell id="qDkiEyXSVq0rr-tsYiPm-36" style="rounded=0;orthogonalLoop=1;jettySize=auto;html=1;entryX=0;entryY=0;entryDx=35;entryDy=0;entryPerimeter=0;" edge="1" parent="1" source="qDkiEyXSVq0rr-tsYiPm-33" target="qDkiEyXSVq0rr-tsYiPm-18">
          <mxGeometry relative="1" as="geometry" />
        </mxCell>
        <mxCell id="qDkiEyXSVq0rr-tsYiPm-37" style="rounded=0;orthogonalLoop=1;jettySize=auto;html=1;exitX=0;exitY=0;exitDx=10;exitDy=40;exitPerimeter=0;" edge="1" parent="1" source="qDkiEyXSVq0rr-tsYiPm-32">
          <mxGeometry relative="1" as="geometry">
            <mxPoint x="310" y="330" as="targetPoint" />
          </mxGeometry>
        </mxCell>
        <mxCell id="qDkiEyXSVq0rr-tsYiPm-39" style="edgeStyle=orthogonalEdgeStyle;rounded=0;orthogonalLoop=1;jettySize=auto;html=1;entryX=0.5;entryY=0;entryDx=0;entryDy=0;entryPerimeter=0;" edge="1" parent="1" source="qDkiEyXSVq0rr-tsYiPm-18" target="qDkiEyXSVq0rr-tsYiPm-13">
          <mxGeometry relative="1" as="geometry" />
        </mxCell>
        <mxCell id="qDkiEyXSVq0rr-tsYiPm-42" value="1 Tier&amp;nbsp;" style="text;html=1;align=center;verticalAlign=middle;whiteSpace=wrap;rounded=0;" vertex="1" parent="1">
          <mxGeometry x="610" y="220" width="60" height="30" as="geometry" />
        </mxCell>
      </root>
    </mxGraphModel>
  </diagram>
</mxfile>
